HIERARCHY
ROOT root
{
  OFFSET 0 93.2929 0
  CHANNELS 6 Xposition Yposition Zposition Zrotation Xrotation Yrotation
  JOINT torso_1
  {
    OFFSET 0 5.07867 -1.15138
    CHANNELS 6 Xposition Yposition Zposition Zrotation Xrotation Yrotation
    JOINT torso_2
    {
      OFFSET 0 5.61661 1.07143
      CHANNELS 6 Xposition Yposition Zposition Zrotation Xrotation Yrotation
      JOINT torso_3
      {
        OFFSET -1.02604e-17 5.98978 0.11501
        CHANNELS 6 Xposition Yposition Zposition Zrotation Xrotation Yrotation
        JOINT torso_4
        {
          OFFSET -1.10457e-17 6.50583 -0.443523
          CHANNELS 6 Xposition Yposition Zposition Zrotation Xrotation Yrotation
          JOINT torso_5
          {
            OFFSET -1.97295e-17 7.60548 -1.50593
            CHANNELS 6 Xposition Yposition Zposition Zrotation Xrotation Yrotation
            JOINT torso_6
            {
              OFFSET -2.53307e-17 9.49737 -0.914492
              CHANNELS 6 Xposition Yposition Zposition Zrotation Xrotation Yrotation
              JOINT torso_7
              {
                OFFSET -2.90401e-17 10.5513 1.57691
                CHANNELS 6 Xposition Yposition Zposition Zrotation Xrotation Yrotation
                JOINT neck_1
                {
                  OFFSET -1.29193e-17 4.78644 0.715339
                  CHANNELS 6 Xposition Yposition Zposition Zrotation Xrotation Yrotation
                  JOINT neck_2
                  {
                    OFFSET -1.8116e-17 4.82109 0.421791
                    CHANNELS 6 Xposition Yposition Zposition Zrotation Xrotation Yrotation
                    JOINT head
                    {
                      OFFSET -2.00958e-17 4.83041 0.765062
                      CHANNELS 6 Xposition Yposition Zposition Zrotation Xrotation Yrotation
                      End Site
                      {
                        OFFSET 0 0.1 0
                      }
                    }
                  }
                }
                JOINT l_shoulder
                {
                  OFFSET 1.23299 -7.60731 7.53374
                  CHANNELS 6 Xposition Yposition Zposition Zrotation Xrotation Yrotation
                  JOINT l_up_arm
                  {
                    OFFSET 12.9547 3.2495 -3.26872
                    CHANNELS 6 Xposition Yposition Zposition Zrotation Xrotation Yrotation
                    JOINT l_low_arm
                    {
                      OFFSET 29.2081 0.0598081 0.137039
                      CHANNELS 6 Xposition Yposition Zposition Zrotation Xrotation Yrotation
                      JOINT l_hand
                      {
                        OFFSET 24.234 0.0496219 0.113701
                        CHANNELS 6 Xposition Yposition Zposition Zrotation Xrotation Yrotation
                        End Site
                        {
                          OFFSET 0.1 0 0
                        }
                      }
                    }
                  }
                }
                JOINT r_shoulder
                {
                  OFFSET -1.23299 -7.60729 7.53365
                  CHANNELS 6 Xposition Yposition Zposition Zrotation Xrotation Yrotation
                  JOINT r_up_arm
                  {
                    OFFSET -12.9547 3.2495 -3.26872
                    CHANNELS 6 Xposition Yposition Zposition Zrotation Xrotation Yrotation
                    JOINT r_low_arm
                    {
                      OFFSET -29.2081 0.0598081 0.137039
                      CHANNELS 6 Xposition Yposition Zposition Zrotation Xrotation Yrotation
                      JOINT r_hand
                      {
                        OFFSET -24.234 0.0496218 0.113702
                        CHANNELS 6 Xposition Yposition Zposition Zrotation Xrotation Yrotation
                        End Site
                        {
                          OFFSET -0.1 0 0
                        }
                      }
                    }
                  }
                }
              }
            }
          }
        }
      }
    }
  }
  JOINT l_up_leg
  {
    OFFSET 9.23673 -4.20556 2.0327
    CHANNELS 6 Xposition Yposition Zposition Zrotation Xrotation Yrotation
    JOINT l_low_leg
    {
      OFFSET -0.852353 -38.7721 -0.655187
      CHANNELS 6 Xposition Yposition Zposition Zrotation Xrotation Yrotation
      JOINT l_foot
      {
        OFFSET -2.32622 -40.4017 -6.04875
        CHANNELS 6 Xposition Yposition Zposition Zrotation Xrotation Yrotation
        JOINT l_toes
        {
          OFFSET 0.779096 -9.8844 12.4959
          CHANNELS 6 Xposition Yposition Zposition Zrotation Xrotation Yrotation
          End Site
          {
            OFFSET 0 0 0.1
          }
        }
      }
    }
  }
  JOINT r_up_leg
  {
    OFFSET -9.23673 -4.20556 2.0327
    CHANNELS 6 Xposition Yposition Zposition Zrotation Xrotation Yrotation
    JOINT r_low_leg
    {
      OFFSET 0.852353 -38.7721 -0.655187
      CHANNELS 6 Xposition Yposition Zposition Zrotation Xrotation Yrotation
      JOINT r_foot
      {
        OFFSET 2.32622 -40.4017 -6.04875
        CHANNELS 6 Xposition Yposition Zposition Zrotation Xrotation Yrotation
        JOINT r_toes
        {
          OFFSET -0.779096 -9.8844 12.4959
          CHANNELS 6 Xposition Yposition Zposition Zrotation Xrotation Yrotation
          End Site
          {
            OFFSET 0 0 0.1
          }
        }
      }
    }
  }
}
MOTION
Frames: 7
Frame Time: 0.016667
1.37089 91.5927 63.3909 7.15056 -6.1286 -0.261903 0 5.07867 -1.15138 -0.82546 -2.13818 1.27997 0 5.61661 1.07143 -0.936415 -1.22395 1.20536 -1.02604e-17 5.98978 0.11501 -0.882631 -0.00331682 1.25122 -1.10457e-17 6.50583 -0.443523 -0.881394 1.61296 1.30715 -1.97295e-17 7.60548 -1.50593 -0.507734 2.34833 1.41907 -2.53307e-17 9.49737 -0.914492 0.0971402 2.47486 1.39249 -2.90401e-17 10.5513 1.57691 -0.0720629 0.855815 0.105517 -1.29193e-17 4.78644 0.715339 -0.772442 3.0416 -0.396899 -1.8116e-17 4.82109 0.421791 -1.81397 -1.02625 -0.389265 -2.00958e-17 4.83041 0.765062 -2.50022 0.640361 1.19647 1.23299 -7.60731 7.53374 4.42986 -0.604373 -0.61517 12.9547 3.2495 -3.26872 -66.9765 26.0328 -16.8124 29.2081 0.0598081 0.137039 11.9717 -13.1683 -96.0872 24.234 0.0496219 0.113701 -2.23767 -30.1249 -3.72244 -1.23299 -7.60729 7.53365 -4.33029 -0.612023 0.602877 -12.9547 3.2495 -3.26872 74.6481 30.3784 19.3952 -29.2081 0.0598081 0.137039 -12.0329 -11.8369 89.6453 -24.234 0.0496218 0.113702 2.03125 4.98703 6.04548 9.23673 -4.20556 2.0327 0.804423 6.45653 -3.46544 -0.852353 -38.7721 -0.655187 -0.313984 1.17229 -0.0172501 -2.32622 -40.4017 -6.04875 -7.70148 -1.26614 16.3221 0.779096 -9.8844 12.4959 -1.78719e-16 -8.04681e-16 2.19662e-17 -9.23673 -4.20556 2.0327 -18.5575 -1.0676 5.27396 0.852353 -38.7721 -0.655187 1.85692 6.92334 0.00865544 2.32622 -40.4017 -6.04875 5.05977 -5.55752 -15.6938 -0.779096 -9.8844 12.4959 -4.02351e-16 -5.74388e-16 -1.27499e-14 
1.35714 91.5917 63.4201 7.23846 -6.09679 -0.321865 0 5.07867 -1.15138 -0.773885 -2.07787 1.31497 0 5.61661 1.07143 -0.903607 -1.17419 1.25448 -1.02604e-17 5.98978 0.11501 -0.862797 0.0242503 1.30757 -1.10457e-17 6.50583 -0.443523 -0.87733 1.60857 1.37073 -1.97295e-17 7.60548 -1.50593 -0.504633 2.31928 1.48258 -2.53307e-17 9.49737 -0.914492 0.111132 2.42756 1.4554 -2.90401e-17 10.5513 1.57691 -0.070295 0.848202 0.120609 -1.29193e-17 4.78644 0.715339 -0.833858 2.62575 -0.534374 -1.8116e-17 4.82109 0.421791 -1.80529 -0.916578 -0.452563 -2.00958e-17 4.83041 0.765062 -2.50549 0.948143 1.12189 1.23299 -7.60731 7.53374 4.4226 -0.521158 -0.705002 12.9547 3.2495 -3.26872 -66.9563 26.0074 -17.0123 29.2081 0.0598081 0.137039 11.9736 -13.1498 -95.997 24.234 0.0496219 0.113701 -2.38468 -30.3363 -3.7942 -1.23299 -7.60729 7.53365 -3.85991 -0.473089 0.830413 -12.9547 3.2495 -3.26872 74.0539 30.3888 18.9557 -29.2081 0.0598081 0.137039 -12.0319 -12.1789 91.2941 -24.234 0.0496218 0.113702 2.09799 4.57979 6.42431 9.23673 -4.20556 2.0327 0.730286 6.40253 -3.41767 -0.852353 -38.7721 -0.655187 -0.327376 1.22231 -0.0178434 -2.32622 -40.4017 -6.04875 -7.7481 -1.22275 16.3357 0.779096 -9.8844 12.4959 -2.70938e-16 -8.04382e-16 2.16674e-17 -9.23673 -4.20556 2.0327 -18.6384 -1.12265 5.35949 0.852353 -38.7721 -0.655187 1.86223 6.94303 0.00835794 2.32622 -40.4017 -6.04875 5.08192 -5.65247 -15.6923 -0.779096 -9.8844 12.4959 9.70013e-17 -5.93173e-16 -1.27687e-14 
1.34095 91.5924 63.4483 7.30723 -6.09422 -0.431861 0 5.07867 -1.15138 -0.882597 -2.02753 1.32099 0 5.61661 1.07143 -0.994425 -1.16297 1.23529 -1.02604e-17 5.98978 0.11501 -0.930124 -0.0204733 1.28163 -1.10457e-17 6.50583 -0.443523 -0.920149 1.47224 1.33696 -1.97295e-17 7.60548 -1.50593 -0.523435 2.1224 1.45429 -2.53307e-17 9.49737 -0.914492 0.109336 2.17603 1.42033 -2.90401e-17 10.5513 1.57691 -0.0506479 0.899373 0.0872743 -1.29193e-17 4.78644 0.715339 -0.732656 3.56813 -0.474969 -1.8116e-17 4.82109 0.421791 -1.67973 -0.831594 -0.423708 -2.00958e-17 4.83041 0.765062 -2.2831 0.516633 1.25181 1.23299 -7.60731 7.53374 4.72672 -0.465663 -0.543088 12.9547 3.2495 -3.26872 -67.1667 26.0353 -16.39 29.2081 0.0598081 0.137039 11.9751 -13.1353 -95.9264 24.234 0.0496219 0.113701 -2.52822 -30.5217 -3.93694 -1.23299 -7.60729 7.53365 -5.23798 -0.708644 0.120054 -12.9547 3.2495 -3.26872 74.5281 31.1094 20.309 -29.2081 0.0598081 0.137039 -12.0233 -12.4639 92.6707 -24.234 0.0496218 0.113702 2.54444 3.26711 5.51091 9.23673 -4.20556 2.0327 0.668693 6.35816 -3.2531 -0.852353 -38.7721 -0.655187 -0.350439 1.30846 -0.0188377 -2.32622 -40.4017 -6.04875 -7.75632 -1.17486 16.3489 0.779096 -9.8844 12.4959 5.14637e-16 -7.70589e-16 -1.21252e-17 -9.23673 -4.20556 2.0327 -18.6916 -1.11951 5.50404 0.852353 -38.7721 -0.655187 1.84216 6.86861 0.00947297 2.32622 -40.4017 -6.04875 5.03095 -5.68315 -15.6602 -0.779096 -9.8844 12.4959 -9.84359e-16 -5.50137e-16 -1.27257e-14 
1.33402 91.595 63.4733 7.36757 -6.11688 -0.574826 0 5.07867 -1.15138 -0.935042 -2.10688 1.30581 0 5.61661 1.07143 -1.03181 -1.22018 1.20856 -1.02604e-17 5.98978 0.11501 -0.952885 -0.0430347 1.25149 -1.10457e-17 6.50583 -0.443523 -0.926449 1.5053 1.30378 -1.97295e-17 7.60548 -1.50593 -0.520526 2.18031 1.42156 -2.53307e-17 9.49737 -0.914492 0.11478 2.24764 1.38282 -2.90401e-17 10.5513 1.57691 -0.0439372 0.893376 0.0714179 -1.29193e-17 4.78644 0.715339 -0.67515 3.90572 -0.44343 -1.8116e-17 4.82109 0.421791 -1.61322 -0.937618 -0.408302 -2.00958e-17 4.83041 0.765062 -2.11399 0.489962 1.39099 1.23299 -7.60731 7.53374 4.78674 -0.550966 -0.439031 12.9547 3.2495 -3.26872 -67.0791 25.9948 -16.3139 29.2081 0.0598081 0.137039 11.9764 -13.1217 -95.8601 24.234 0.0496219 0.113701 -2.41064 -30.7076 -3.83197 -1.23299 -7.60729 7.53365 -5.68138 -0.880846 -0.159381 -12.9547 3.2495 -3.26872 75.1344 31.5882 21.0515 -29.2081 0.0598081 0.137039 -12.0159 -12.6154 93.4033 -24.234 0.0496218 0.113702 2.5839 3.49755 5.67641 9.23673 -4.20556 2.0327 0.579079 6.3824 -3.11071 -0.852353 -38.7721 -0.655187 -0.353045 1.3182 -0.0189478 -2.32622 -40.4017 -6.04875 -7.62109 -1.06767 16.3487 0.779096 -9.8844 12.4959 5.24201e-16 -7.76353e-16 -6.36146e-18 -9.23673 -4.20556 2.0327 -18.7349 -1.15217 5.71309 0.852353 -38.7721 -0.655187 1.84114 6.86483 0.00952895 2.32622 -40.4017 -6.04875 4.96348 -5.70986 -15.6563 -0.779096 -9.8844 12.4959 -2.08349e-16 -5.8045e-16 -1.2756e-14 
1.34704 91.5964 63.4954 7.40952 -6.13381 -0.722554 0 5.07867 -1.15138 -0.904918 -2.06705 1.30882 0 5.61661 1.07143 -1.00242 -1.18425 1.21855 -1.02604e-17 5.98978 0.11501 -0.926169 -0.00926606 1.26521 -1.10457e-17 6.50583 -0.443523 -0.901517 1.53341 1.32099 -1.97295e-17 7.60548 -1.50593 -0.496516 2.19909 1.43642 -2.53307e-17 9.49737 -0.914492 0.141025 2.26326 1.38977 -2.90401e-17 10.5513 1.57691 -0.0398485 0.878607 0.0767941 -1.29193e-17 4.78644 0.715339 -0.66805 3.77118 -0.396758 -1.8116e-17 4.82109 0.421791 -1.55297 -0.834098 -0.383482 -2.00958e-17 4.83041 0.765062 -2.08307 0.678996 1.14999 1.23299 -7.60731 7.53374 4.80866 -0.557155 -0.447549 12.9547 3.2495 -3.26872 -67.0225 25.8679 -16.2764 29.2081 0.0598081 0.137039 11.9777 -13.1089 -95.7978 24.234 0.0496219 0.113701 -2.57574 -31.0075 -4.15416 -1.23299 -7.60729 7.53365 -5.47259 -0.849681 -0.0186369 -12.9547 3.2495 -3.26872 75.5782 31.286 21.0095 -29.2081 0.0598081 0.137039 -12.0056 -12.7786 94.1938 -24.234 0.0496218 0.113702 2.54735 4.28897 6.21889 9.23673 -4.20556 2.0327 0.528937 6.38992 -2.95314 -0.852353 -38.7721 -0.655187 -0.366392 1.36806 -0.0195052 -2.32622 -40.4017 -6.04875 -7.69732 -1.06289 16.3712 0.779096 -9.8844 12.4959 -1.69155e-16 -8.01201e-16 1.84866e-17 -9.23673 -4.20556 2.0327 -18.7786 -1.14828 5.82045 0.852353 -38.7721 -0.655187 1.82155 6.79219 0.0105905 2.32622 -40.4017 -6.04875 5.11054 -5.77851 -15.6756 -0.779096 -9.8844 12.4959 -3.92787e-16 -5.68624e-16 -1.27534e-14 
1.38418 91.5961 63.5162 7.44095 -6.12611 -0.845737 0 5.07867 -1.15138 -0.922911 -1.98591 1.29215 0 5.61661 1.07143 -1.01109 -1.14957 1.19457 -1.02604e-17 5.98978 0.11501 -0.926525 -0.0359624 1.23991 -1.10457e-17 6.50583 -0.443523 -0.891445 1.4078 1.29209 -1.97295e-17 7.60548 -1.50593 -0.481355 2.01183 1.40632 -2.53307e-17 9.49737 -0.914492 0.154236 2.02524 1.34842 -2.90401e-17 10.5513 1.57691 -0.02587 0.922388 0.0579681 -1.29193e-17 4.78644 0.715339 -0.591923 4.66828 -0.402234 -1.8116e-17 4.82109 0.421791 -1.43492 -0.686634 -0.383402 -2.00958e-17 4.83041 0.765062 -2.00009 0.335769 1.16127 1.23299 -7.60731 7.53374 5.29001 -0.556624 -0.204769 12.9547 3.2495 -3.26872 -67.4803 26.006 -16.0386 29.2081 0.0598081 0.137039 11.978 -13.1054 -95.7808 24.234 0.0496219 0.113701 -2.63236 -31.2502 -4.13046 -1.23299 -7.60729 7.53365 -6.49676 -0.978392 -0.526734 -12.9547 3.2495 -3.26872 76.2817 31.1805 21.5576 -29.2081 0.0598081 0.137039 -11.9931 -12.941 94.982 -24.234 0.0496218 0.113702 2.75623 3.61649 5.95958 9.23673 -4.20556 2.0327 0.457598 6.37517 -2.79296 -0.852353 -38.7721 -0.655187 -0.374675 1.399 -0.0198452 -2.32622 -40.4017 -6.04875 -7.60081 -1.03677 16.3615 0.779096 -9.8844 12.4959 5.14626e-16 -7.7059e-16 -1.21247e-17 -9.23673 -4.20556 2.0327 -18.8348 -1.1691 5.9514 0.852353 -38.7721 -0.655187 1.80256 6.72177 0.0115957 2.32622 -40.4017 -6.04875 5.1898 -5.79043 -15.6617 -0.779096 -9.8844 12.4959 -5.96354e-16 -5.59082e-16 -1.27471e-14 
1.44397 91.597 63.5353 7.49124 -6.11382 -0.925433 0 5.07867 -1.15138 -0.948741 -1.96296 1.22825 0 5.61661 1.07143 -1.0224 -1.16608 1.11925 -1.02604e-17 5.98978 0.11501 -0.927272 -0.0994431 1.16195 -1.10457e-17 6.50583 -0.443523 -0.877779 1.27611 1.20675 -1.97295e-17 7.60548 -1.50593 -0.471421 1.83322 1.31778 -2.53307e-17 9.49737 -0.914492 0.14309 1.81254 1.25241 -2.90401e-17 10.5513 1.57691 -0.0135466 0.975013 0.0285749 -1.29193e-17 4.78644 0.715339 -0.502726 6.04946 -0.339912 -1.8116e-17 4.82109 0.421791 -1.32751 -0.726086 -0.351624 -2.00958e-17 4.83041 0.765062 -1.92674 -0.20073 1.32293 1.23299 -7.60731 7.53374 6.05231 -0.664413 0.307398 12.9547 3.2495 -3.26872 -68.35 26.2854 -15.9122 29.2081 0.0598081 0.137039 11.9768 -13.1183 -95.8436 24.234 0.0496219 0.113701 -2.49471 -31.3792 -3.64435 -1.23299 -7.60729 7.53365 -8.0052 -1.22605 -1.31683 -12.9547 3.2495 -3.26872 76.4673 30.7824 21.9225 -29.2081 0.0598081 0.137039 -11.9837 -13.0475 95.4994 -24.234 0.0496218 0.113702 2.96898 1.67168 6.14122 9.23673 -4.20556 2.0327 0.338476 6.37446 -2.68895 -0.852353 -38.7721 -0.655187 -0.370263 1.38252 -0.0196647 -2.32622 -40.4017 -6.04875 -7.41257 -0.959444 16.3305 0.779096 -9.8844 12.4959 2.28424e-16 -7.85596e-16 2.88141e-18 -9.23673 -4.20556 2.0327 -18.9106 -1.18672 6.03945 0.852353 -38.7721 -0.655187 1.78598 6.66028 0.0124539 2.32622 -40.4017 -6.04875 5.13548 -5.75686 -15.6539 -0.779096 -9.8844 12.4959 -4.79153e-18 -5.86811e-16 -1.27656e-14 
